<mxfile host="app.diagrams.net" modified="2023-04-17T03:34:24.664Z" agent="Mozilla/5.0 (Windows NT 10.0; Win64; x64) AppleWebKit/537.36 (KHTML, like Gecko) Chrome/112.0.0.0 Safari/537.36" etag="rYfGXErRDmp6kl4GnXLY" version="21.1.8" type="device" pages="6">
  <diagram name="Page-1" id="K6UgD4kqSmbPpRhTwACa">
    <mxGraphModel dx="2937" dy="807" grid="1" gridSize="10" guides="1" tooltips="1" connect="1" arrows="1" fold="1" page="1" pageScale="1" pageWidth="850" pageHeight="1100" math="0" shadow="0">
      <root>
        <mxCell id="0" />
        <mxCell id="1" parent="0" />
        <mxCell id="auHC2lMCmRA8J_y3KW6C-5" value="Casos de uso" style="swimlane;fillStyle=solid;swimlaneFillColor=default;" parent="1" vertex="1">
          <mxGeometry x="110" y="150" width="1030" height="540" as="geometry">
            <mxRectangle x="105" y="130" width="100" height="30" as="alternateBounds" />
          </mxGeometry>
        </mxCell>
        <mxCell id="auHC2lMCmRA8J_y3KW6C-6" value="Log in/Sign up" style="rounded=1;whiteSpace=wrap;html=1;perimeterSpacing=0;arcSize=120;" parent="auHC2lMCmRA8J_y3KW6C-5" vertex="1">
          <mxGeometry x="340" y="130" width="130" height="43.5" as="geometry" />
        </mxCell>
        <mxCell id="auHC2lMCmRA8J_y3KW6C-7" value="Editar datos&lt;br&gt;de usuarios" style="rounded=1;whiteSpace=wrap;html=1;perimeterSpacing=0;arcSize=120;" parent="auHC2lMCmRA8J_y3KW6C-5" vertex="1">
          <mxGeometry x="780" y="33" width="130" height="43.5" as="geometry" />
        </mxCell>
        <mxCell id="auHC2lMCmRA8J_y3KW6C-8" value="Generar links&lt;br&gt;de registro" style="rounded=1;whiteSpace=wrap;html=1;perimeterSpacing=0;arcSize=120;" parent="auHC2lMCmRA8J_y3KW6C-5" vertex="1">
          <mxGeometry x="340" y="68.25" width="130" height="43.5" as="geometry" />
        </mxCell>
        <mxCell id="auHC2lMCmRA8J_y3KW6C-11" value="Crear grupo&lt;br&gt;de entrenamiento" style="rounded=1;whiteSpace=wrap;html=1;perimeterSpacing=0;arcSize=120;" parent="auHC2lMCmRA8J_y3KW6C-5" vertex="1">
          <mxGeometry x="340" y="220" width="130" height="43.5" as="geometry" />
        </mxCell>
        <mxCell id="auHC2lMCmRA8J_y3KW6C-13" value="Gestionar miembros&lt;br&gt;de grupos" style="rounded=1;whiteSpace=wrap;html=1;perimeterSpacing=0;arcSize=120;" parent="auHC2lMCmRA8J_y3KW6C-5" vertex="1">
          <mxGeometry x="600" y="176.5" width="130" height="43.5" as="geometry" />
        </mxCell>
        <mxCell id="auHC2lMCmRA8J_y3KW6C-14" value="Gestionar ciclos y &lt;br&gt;planes de entrenamiento" style="rounded=1;whiteSpace=wrap;html=1;perimeterSpacing=0;arcSize=120;" parent="auHC2lMCmRA8J_y3KW6C-5" vertex="1">
          <mxGeometry x="600" y="260" width="160" height="43.5" as="geometry" />
        </mxCell>
        <mxCell id="auHC2lMCmRA8J_y3KW6C-15" value="Consultar datos de perfil" style="rounded=1;whiteSpace=wrap;html=1;perimeterSpacing=0;arcSize=120;" parent="auHC2lMCmRA8J_y3KW6C-5" vertex="1">
          <mxGeometry x="40" y="200" width="130" height="43.5" as="geometry" />
        </mxCell>
        <mxCell id="auHC2lMCmRA8J_y3KW6C-16" value="Visualizar &lt;br&gt;planificación de entrenamiento" style="rounded=1;whiteSpace=wrap;html=1;perimeterSpacing=0;arcSize=120;" parent="auHC2lMCmRA8J_y3KW6C-5" vertex="1">
          <mxGeometry x="185" y="414.75" width="130" height="43.5" as="geometry" />
        </mxCell>
        <mxCell id="auHC2lMCmRA8J_y3KW6C-17" value="Entrenar con&lt;br&gt;módulo IA" style="rounded=1;whiteSpace=wrap;html=1;perimeterSpacing=0;arcSize=120;" parent="auHC2lMCmRA8J_y3KW6C-5" vertex="1">
          <mxGeometry x="430" y="413" width="130" height="43.5" as="geometry" />
        </mxCell>
        <mxCell id="auHC2lMCmRA8J_y3KW6C-19" value="Visualizar dashboard&lt;br&gt;de entrenamientos" style="rounded=1;whiteSpace=wrap;html=1;perimeterSpacing=0;arcSize=120;" parent="auHC2lMCmRA8J_y3KW6C-5" vertex="1">
          <mxGeometry x="430" y="354.75" width="130" height="43.5" as="geometry" />
        </mxCell>
        <mxCell id="auHC2lMCmRA8J_y3KW6C-22" value="Visualizar feedback&lt;br&gt;y objetivos" style="rounded=1;whiteSpace=wrap;html=1;perimeterSpacing=0;arcSize=120;" parent="auHC2lMCmRA8J_y3KW6C-5" vertex="1">
          <mxGeometry x="430" y="474.75" width="130" height="43.5" as="geometry" />
        </mxCell>
        <mxCell id="auHC2lMCmRA8J_y3KW6C-23" value="Visualizar entrenamientos de&lt;br&gt;esgrimista" style="rounded=1;whiteSpace=wrap;html=1;perimeterSpacing=0;arcSize=120;" parent="auHC2lMCmRA8J_y3KW6C-5" vertex="1">
          <mxGeometry x="840" y="303.5" width="130" height="43.5" as="geometry" />
        </mxCell>
        <mxCell id="auHC2lMCmRA8J_y3KW6C-36" value="&amp;lt;&amp;lt;include&amp;gt;&amp;gt;" style="endArrow=open;endSize=9;endFill=0;html=1;rounded=0;dashed=1;exitX=0.955;exitY=0.294;exitDx=0;exitDy=0;exitPerimeter=0;entryX=0;entryY=0.5;entryDx=0;entryDy=0;" parent="auHC2lMCmRA8J_y3KW6C-5" source="auHC2lMCmRA8J_y3KW6C-11" target="auHC2lMCmRA8J_y3KW6C-13" edge="1">
          <mxGeometry width="160" relative="1" as="geometry">
            <mxPoint x="30" y="550" as="sourcePoint" />
            <mxPoint x="580" y="250" as="targetPoint" />
          </mxGeometry>
        </mxCell>
        <mxCell id="auHC2lMCmRA8J_y3KW6C-37" value="&amp;lt;&amp;lt;include&amp;gt;&amp;gt;" style="endArrow=open;endSize=9;endFill=0;html=1;rounded=0;dashed=1;exitX=0.932;exitY=0.759;exitDx=0;exitDy=0;exitPerimeter=0;entryX=0;entryY=0.5;entryDx=0;entryDy=0;" parent="auHC2lMCmRA8J_y3KW6C-5" source="auHC2lMCmRA8J_y3KW6C-11" target="auHC2lMCmRA8J_y3KW6C-14" edge="1">
          <mxGeometry width="160" relative="1" as="geometry">
            <mxPoint x="450" y="326" as="sourcePoint" />
            <mxPoint x="550" y="242" as="targetPoint" />
          </mxGeometry>
        </mxCell>
        <mxCell id="auHC2lMCmRA8J_y3KW6C-40" value="Generar objetivos" style="rounded=1;whiteSpace=wrap;html=1;perimeterSpacing=0;arcSize=120;" parent="auHC2lMCmRA8J_y3KW6C-5" vertex="1">
          <mxGeometry x="840" y="220" width="130" height="43.5" as="geometry" />
        </mxCell>
        <mxCell id="auHC2lMCmRA8J_y3KW6C-41" value="&amp;lt;&amp;lt;extends&amp;gt;&amp;gt;" style="endArrow=open;endSize=9;endFill=0;html=1;rounded=0;dashed=1;entryX=0.91;entryY=0.112;entryDx=0;entryDy=0;exitX=0;exitY=0.5;exitDx=0;exitDy=0;entryPerimeter=0;" parent="auHC2lMCmRA8J_y3KW6C-5" source="auHC2lMCmRA8J_y3KW6C-40" target="auHC2lMCmRA8J_y3KW6C-14" edge="1">
          <mxGeometry width="160" relative="1" as="geometry">
            <mxPoint x="500" y="540" as="sourcePoint" />
            <mxPoint x="660" y="540" as="targetPoint" />
          </mxGeometry>
        </mxCell>
        <mxCell id="auHC2lMCmRA8J_y3KW6C-42" value="&amp;lt;&amp;lt;extends&amp;gt;&amp;gt;" style="endArrow=open;endSize=9;endFill=0;html=1;rounded=0;dashed=1;entryX=0.902;entryY=0.914;entryDx=0;entryDy=0;entryPerimeter=0;exitX=0;exitY=0.5;exitDx=0;exitDy=0;" parent="auHC2lMCmRA8J_y3KW6C-5" source="auHC2lMCmRA8J_y3KW6C-23" target="auHC2lMCmRA8J_y3KW6C-14" edge="1">
          <mxGeometry width="160" relative="1" as="geometry">
            <mxPoint x="30" y="520" as="sourcePoint" />
            <mxPoint x="190" y="520" as="targetPoint" />
          </mxGeometry>
        </mxCell>
        <mxCell id="auHC2lMCmRA8J_y3KW6C-56" value="&amp;lt;&amp;lt;extends&amp;gt;&amp;gt;" style="endArrow=open;endSize=9;endFill=0;html=1;rounded=0;dashed=1;entryX=0.943;entryY=0.262;entryDx=0;entryDy=0;exitX=0;exitY=0.5;exitDx=0;exitDy=0;entryPerimeter=0;" parent="auHC2lMCmRA8J_y3KW6C-5" source="auHC2lMCmRA8J_y3KW6C-19" target="auHC2lMCmRA8J_y3KW6C-16" edge="1">
          <mxGeometry width="160" relative="1" as="geometry">
            <mxPoint x="-240" y="249" as="sourcePoint" />
            <mxPoint x="-40" y="250" as="targetPoint" />
          </mxGeometry>
        </mxCell>
        <mxCell id="auHC2lMCmRA8J_y3KW6C-57" value="&amp;lt;&amp;lt;extends&amp;gt;&amp;gt;" style="endArrow=open;endSize=9;endFill=0;html=1;rounded=0;dashed=1;entryX=1;entryY=0.5;entryDx=0;entryDy=0;exitX=0;exitY=0.5;exitDx=0;exitDy=0;" parent="auHC2lMCmRA8J_y3KW6C-5" source="auHC2lMCmRA8J_y3KW6C-17" target="auHC2lMCmRA8J_y3KW6C-16" edge="1">
          <mxGeometry width="160" relative="1" as="geometry">
            <mxPoint x="-250" y="249" as="sourcePoint" />
            <mxPoint x="-40" y="250" as="targetPoint" />
          </mxGeometry>
        </mxCell>
        <mxCell id="auHC2lMCmRA8J_y3KW6C-58" value="&amp;lt;&amp;lt;extends&amp;gt;&amp;gt;" style="endArrow=open;endSize=9;endFill=0;html=1;rounded=0;dashed=1;entryX=0.943;entryY=0.778;entryDx=0;entryDy=0;entryPerimeter=0;exitX=0;exitY=0.5;exitDx=0;exitDy=0;" parent="auHC2lMCmRA8J_y3KW6C-5" source="auHC2lMCmRA8J_y3KW6C-22" target="auHC2lMCmRA8J_y3KW6C-16" edge="1">
          <mxGeometry width="160" relative="1" as="geometry">
            <mxPoint x="-240" y="249" as="sourcePoint" />
            <mxPoint x="-40" y="250" as="targetPoint" />
          </mxGeometry>
        </mxCell>
        <mxCell id="auHC2lMCmRA8J_y3KW6C-18" value="Generar feedback" style="rounded=1;whiteSpace=wrap;html=1;perimeterSpacing=0;arcSize=120;" parent="auHC2lMCmRA8J_y3KW6C-5" vertex="1">
          <mxGeometry x="760" y="400" width="130" height="43.5" as="geometry" />
        </mxCell>
        <mxCell id="auHC2lMCmRA8J_y3KW6C-39" value="&amp;lt;&amp;lt;extends&amp;gt;&amp;gt;" style="endArrow=open;endSize=9;endFill=0;html=1;rounded=0;dashed=1;entryX=0.598;entryY=1.013;entryDx=0;entryDy=0;exitX=0.187;exitY=0.096;exitDx=0;exitDy=0;entryPerimeter=0;exitPerimeter=0;" parent="auHC2lMCmRA8J_y3KW6C-5" source="auHC2lMCmRA8J_y3KW6C-18" target="auHC2lMCmRA8J_y3KW6C-14" edge="1">
          <mxGeometry width="160" relative="1" as="geometry">
            <mxPoint x="200" y="520" as="sourcePoint" />
            <mxPoint x="360" y="520" as="targetPoint" />
          </mxGeometry>
        </mxCell>
        <mxCell id="h4heHdd709Yejz3iXZIt-1" value="&amp;lt;&amp;lt;extends&amp;gt;&amp;gt;" style="endArrow=open;endSize=9;endFill=0;html=1;rounded=0;dashed=1;entryX=0.5;entryY=1;entryDx=0;entryDy=0;exitX=0.75;exitY=0;exitDx=0;exitDy=0;" edge="1" parent="auHC2lMCmRA8J_y3KW6C-5" source="auHC2lMCmRA8J_y3KW6C-18" target="auHC2lMCmRA8J_y3KW6C-23">
          <mxGeometry width="160" relative="1" as="geometry">
            <mxPoint x="850" y="432" as="sourcePoint" />
            <mxPoint x="706" y="314" as="targetPoint" />
          </mxGeometry>
        </mxCell>
        <mxCell id="auHC2lMCmRA8J_y3KW6C-27" style="rounded=0;orthogonalLoop=1;jettySize=auto;html=1;jumpStyle=arc;jumpSize=6;" parent="1" source="auHC2lMCmRA8J_y3KW6C-1" target="auHC2lMCmRA8J_y3KW6C-6" edge="1">
          <mxGeometry relative="1" as="geometry" />
        </mxCell>
        <mxCell id="auHC2lMCmRA8J_y3KW6C-1" value="Admin" style="shape=umlActor;verticalLabelPosition=bottom;verticalAlign=top;html=1;outlineConnect=0;" parent="1" vertex="1">
          <mxGeometry x="1190" y="220" width="30" height="60" as="geometry" />
        </mxCell>
        <mxCell id="auHC2lMCmRA8J_y3KW6C-26" style="rounded=0;orthogonalLoop=1;jettySize=auto;html=1;jumpStyle=arc;jumpSize=6;entryX=0;entryY=0.5;entryDx=0;entryDy=0;" parent="1" source="auHC2lMCmRA8J_y3KW6C-2" target="auHC2lMCmRA8J_y3KW6C-6" edge="1">
          <mxGeometry relative="1" as="geometry" />
        </mxCell>
        <mxCell id="auHC2lMCmRA8J_y3KW6C-52" style="rounded=0;orthogonalLoop=1;jettySize=auto;html=1;exitX=1;exitY=1;exitDx=0;exitDy=0;exitPerimeter=0;entryX=0.077;entryY=0.264;entryDx=0;entryDy=0;entryPerimeter=0;jumpStyle=arc;" parent="1" source="auHC2lMCmRA8J_y3KW6C-2" target="auHC2lMCmRA8J_y3KW6C-15" edge="1">
          <mxGeometry relative="1" as="geometry" />
        </mxCell>
        <mxCell id="auHC2lMCmRA8J_y3KW6C-2" value="Entrenador" style="shape=umlActor;verticalLabelPosition=bottom;verticalAlign=top;html=1;outlineConnect=0;" parent="1" vertex="1">
          <mxGeometry x="10" y="201.75" width="30" height="60" as="geometry" />
        </mxCell>
        <mxCell id="auHC2lMCmRA8J_y3KW6C-28" style="rounded=0;orthogonalLoop=1;jettySize=auto;html=1;entryX=0.075;entryY=0.763;entryDx=0;entryDy=0;jumpStyle=arc;jumpSize=6;entryPerimeter=0;" parent="1" source="auHC2lMCmRA8J_y3KW6C-10" target="auHC2lMCmRA8J_y3KW6C-6" edge="1">
          <mxGeometry relative="1" as="geometry" />
        </mxCell>
        <mxCell id="auHC2lMCmRA8J_y3KW6C-54" style="rounded=0;orthogonalLoop=1;jettySize=auto;html=1;exitX=0.5;exitY=0.5;exitDx=0;exitDy=0;exitPerimeter=0;entryX=0.25;entryY=1;entryDx=0;entryDy=0;jumpStyle=arc;" parent="1" source="auHC2lMCmRA8J_y3KW6C-3" target="auHC2lMCmRA8J_y3KW6C-6" edge="1">
          <mxGeometry relative="1" as="geometry" />
        </mxCell>
        <mxCell id="auHC2lMCmRA8J_y3KW6C-55" style="rounded=0;orthogonalLoop=1;jettySize=auto;html=1;exitX=0.5;exitY=0.5;exitDx=0;exitDy=0;exitPerimeter=0;entryX=0;entryY=0.5;entryDx=0;entryDy=0;jumpStyle=arc;" parent="1" source="auHC2lMCmRA8J_y3KW6C-3" target="auHC2lMCmRA8J_y3KW6C-16" edge="1">
          <mxGeometry relative="1" as="geometry" />
        </mxCell>
        <mxCell id="auHC2lMCmRA8J_y3KW6C-3" value="Esgrimista" style="shape=umlActor;verticalLabelPosition=bottom;verticalAlign=top;html=1;outlineConnect=0;" parent="1" vertex="1">
          <mxGeometry x="10" y="600" width="30" height="60" as="geometry" />
        </mxCell>
        <mxCell id="auHC2lMCmRA8J_y3KW6C-43" style="rounded=0;orthogonalLoop=1;jettySize=auto;html=1;entryX=0;entryY=0.5;entryDx=0;entryDy=0;jumpStyle=arc;jumpSize=6;" parent="1" source="auHC2lMCmRA8J_y3KW6C-2" target="auHC2lMCmRA8J_y3KW6C-11" edge="1">
          <mxGeometry relative="1" as="geometry">
            <mxPoint x="238" y="398" as="sourcePoint" />
            <mxPoint x="295" y="333" as="targetPoint" />
          </mxGeometry>
        </mxCell>
        <mxCell id="auHC2lMCmRA8J_y3KW6C-33" style="rounded=0;orthogonalLoop=1;jettySize=auto;html=1;entryX=1;entryY=0.5;entryDx=0;entryDy=0;jumpStyle=arc;jumpSize=6;" parent="1" source="auHC2lMCmRA8J_y3KW6C-1" target="auHC2lMCmRA8J_y3KW6C-7" edge="1">
          <mxGeometry relative="1" as="geometry">
            <mxPoint x="70" y="529" as="sourcePoint" />
            <mxPoint x="140" y="431" as="targetPoint" />
          </mxGeometry>
        </mxCell>
        <mxCell id="auHC2lMCmRA8J_y3KW6C-46" style="rounded=0;orthogonalLoop=1;jettySize=auto;html=1;entryX=1;entryY=0.5;entryDx=0;entryDy=0;jumpStyle=arc;jumpSize=6;" parent="1" source="auHC2lMCmRA8J_y3KW6C-1" target="auHC2lMCmRA8J_y3KW6C-8" edge="1">
          <mxGeometry relative="1" as="geometry">
            <mxPoint x="70" y="287" as="sourcePoint" />
            <mxPoint x="160" y="267" as="targetPoint" />
          </mxGeometry>
        </mxCell>
        <mxCell id="auHC2lMCmRA8J_y3KW6C-47" style="rounded=0;orthogonalLoop=1;jettySize=auto;html=1;entryX=0;entryY=0.5;entryDx=0;entryDy=0;exitX=1;exitY=0.3333333333333333;exitDx=0;exitDy=0;exitPerimeter=0;jumpStyle=arc;jumpSize=6;" parent="1" source="auHC2lMCmRA8J_y3KW6C-2" target="auHC2lMCmRA8J_y3KW6C-8" edge="1">
          <mxGeometry relative="1" as="geometry">
            <mxPoint x="70" y="289" as="sourcePoint" />
            <mxPoint x="250" y="275" as="targetPoint" />
          </mxGeometry>
        </mxCell>
        <mxCell id="auHC2lMCmRA8J_y3KW6C-49" style="rounded=0;orthogonalLoop=1;jettySize=auto;html=1;entryX=0.061;entryY=0.817;entryDx=0;entryDy=0;jumpStyle=arc;jumpSize=6;entryPerimeter=0;exitX=0.75;exitY=0.1;exitDx=0;exitDy=0;exitPerimeter=0;" parent="1" source="auHC2lMCmRA8J_y3KW6C-3" target="auHC2lMCmRA8J_y3KW6C-15" edge="1">
          <mxGeometry relative="1" as="geometry">
            <mxPoint x="60" y="530" as="sourcePoint" />
            <mxPoint x="330" y="473" as="targetPoint" />
          </mxGeometry>
        </mxCell>
        <mxCell id="auHC2lMCmRA8J_y3KW6C-53" value="" style="rounded=0;orthogonalLoop=1;jettySize=auto;html=1;entryX=0.075;entryY=0.763;entryDx=0;entryDy=0;jumpStyle=arc;jumpSize=6;entryPerimeter=0;exitX=0.5;exitY=0.5;exitDx=0;exitDy=0;exitPerimeter=0;" parent="1" source="auHC2lMCmRA8J_y3KW6C-3" target="auHC2lMCmRA8J_y3KW6C-10" edge="1">
          <mxGeometry relative="1" as="geometry">
            <mxPoint x="60" y="541" as="sourcePoint" />
            <mxPoint x="460" y="313" as="targetPoint" />
          </mxGeometry>
        </mxCell>
        <mxCell id="auHC2lMCmRA8J_y3KW6C-10" value="Gestionar datos&lt;br&gt;de perfil" style="rounded=1;whiteSpace=wrap;html=1;perimeterSpacing=0;arcSize=120;" parent="1" vertex="1">
          <mxGeometry x="150" y="420" width="130" height="43.5" as="geometry" />
        </mxCell>
      </root>
    </mxGraphModel>
  </diagram>
  <diagram name="Copy of Page-1" id="nYMbxoHiMjihlYnQu7oR">
    <mxGraphModel dx="1456" dy="555" grid="1" gridSize="10" guides="1" tooltips="1" connect="1" arrows="1" fold="1" page="1" pageScale="1" pageWidth="850" pageHeight="1100" math="0" shadow="0">
      <root>
        <mxCell id="7A3D9LBUNiD9pQfmwMfv-0" />
        <mxCell id="7A3D9LBUNiD9pQfmwMfv-1" parent="7A3D9LBUNiD9pQfmwMfv-0" />
        <mxCell id="7A3D9LBUNiD9pQfmwMfv-2" value="Caso de uso RF-12, RF-13, RF-14, RF-15" style="swimlane;fillStyle=solid;swimlaneFillColor=default;" vertex="1" parent="7A3D9LBUNiD9pQfmwMfv-1">
          <mxGeometry x="-320" y="550" width="420" height="230" as="geometry">
            <mxRectangle x="105" y="130" width="100" height="30" as="alternateBounds" />
          </mxGeometry>
        </mxCell>
        <mxCell id="7A3D9LBUNiD9pQfmwMfv-30" style="rounded=0;orthogonalLoop=1;jettySize=auto;html=1;exitX=0.5;exitY=0.5;exitDx=0;exitDy=0;exitPerimeter=0;entryX=0;entryY=0.5;entryDx=0;entryDy=0;jumpStyle=arc;" edge="1" parent="7A3D9LBUNiD9pQfmwMfv-1" source="7A3D9LBUNiD9pQfmwMfv-31" target="7A3D9LBUNiD9pQfmwMfv-10">
          <mxGeometry relative="1" as="geometry" />
        </mxCell>
        <mxCell id="7A3D9LBUNiD9pQfmwMfv-31" value="Esgrimista" style="shape=umlActor;verticalLabelPosition=bottom;verticalAlign=top;html=1;outlineConnect=0;" vertex="1" parent="7A3D9LBUNiD9pQfmwMfv-1">
          <mxGeometry x="-380" y="641.75" width="30" height="60" as="geometry" />
        </mxCell>
        <mxCell id="7A3D9LBUNiD9pQfmwMfv-10" value="Visualizar &lt;br&gt;planificación de entrenamiento" style="rounded=1;whiteSpace=wrap;html=1;perimeterSpacing=0;arcSize=120;" vertex="1" parent="7A3D9LBUNiD9pQfmwMfv-1">
          <mxGeometry x="-295" y="650" width="130" height="43.5" as="geometry" />
        </mxCell>
        <mxCell id="7A3D9LBUNiD9pQfmwMfv-20" value="&amp;lt;&amp;lt;extends&amp;gt;&amp;gt;" style="endArrow=open;endSize=9;endFill=0;html=1;rounded=0;dashed=1;entryX=0.943;entryY=0.262;entryDx=0;entryDy=0;exitX=0;exitY=0.5;exitDx=0;exitDy=0;entryPerimeter=0;" edge="1" parent="7A3D9LBUNiD9pQfmwMfv-1" source="7A3D9LBUNiD9pQfmwMfv-12" target="7A3D9LBUNiD9pQfmwMfv-10">
          <mxGeometry width="160" relative="1" as="geometry">
            <mxPoint x="-130" y="399" as="sourcePoint" />
            <mxPoint x="70" y="400" as="targetPoint" />
          </mxGeometry>
        </mxCell>
        <mxCell id="7A3D9LBUNiD9pQfmwMfv-12" value="Visualizar dashboard&lt;br&gt;de entrenamientos" style="rounded=1;whiteSpace=wrap;html=1;perimeterSpacing=0;arcSize=120;" vertex="1" parent="7A3D9LBUNiD9pQfmwMfv-1">
          <mxGeometry x="-50" y="590" width="130" height="43.5" as="geometry" />
        </mxCell>
        <mxCell id="7A3D9LBUNiD9pQfmwMfv-11" value="Entrenar con&lt;br&gt;módulo IA" style="rounded=1;whiteSpace=wrap;html=1;perimeterSpacing=0;arcSize=120;" vertex="1" parent="7A3D9LBUNiD9pQfmwMfv-1">
          <mxGeometry x="-50" y="648.25" width="130" height="43.5" as="geometry" />
        </mxCell>
        <mxCell id="7A3D9LBUNiD9pQfmwMfv-13" value="Visualizar feedback&lt;br&gt;y objetivos" style="rounded=1;whiteSpace=wrap;html=1;perimeterSpacing=0;arcSize=120;" vertex="1" parent="7A3D9LBUNiD9pQfmwMfv-1">
          <mxGeometry x="-50" y="710" width="130" height="43.5" as="geometry" />
        </mxCell>
        <mxCell id="7A3D9LBUNiD9pQfmwMfv-21" value="&amp;lt;&amp;lt;extends&amp;gt;&amp;gt;" style="endArrow=open;endSize=9;endFill=0;html=1;rounded=0;dashed=1;entryX=1;entryY=0.5;entryDx=0;entryDy=0;exitX=0;exitY=0.5;exitDx=0;exitDy=0;" edge="1" parent="7A3D9LBUNiD9pQfmwMfv-1" source="7A3D9LBUNiD9pQfmwMfv-11" target="7A3D9LBUNiD9pQfmwMfv-10">
          <mxGeometry width="160" relative="1" as="geometry">
            <mxPoint x="-140" y="399" as="sourcePoint" />
            <mxPoint x="70" y="400" as="targetPoint" />
          </mxGeometry>
        </mxCell>
        <mxCell id="7A3D9LBUNiD9pQfmwMfv-22" value="&amp;lt;&amp;lt;extends&amp;gt;&amp;gt;" style="endArrow=open;endSize=9;endFill=0;html=1;rounded=0;dashed=1;entryX=0.943;entryY=0.778;entryDx=0;entryDy=0;entryPerimeter=0;exitX=0;exitY=0.5;exitDx=0;exitDy=0;" edge="1" parent="7A3D9LBUNiD9pQfmwMfv-1" source="7A3D9LBUNiD9pQfmwMfv-13" target="7A3D9LBUNiD9pQfmwMfv-10">
          <mxGeometry width="160" relative="1" as="geometry">
            <mxPoint x="-130" y="399" as="sourcePoint" />
            <mxPoint x="70" y="400" as="targetPoint" />
          </mxGeometry>
        </mxCell>
      </root>
    </mxGraphModel>
  </diagram>
  <diagram name="Copy of Page-1" id="7OVC9Fi8dbynSSuZCVUs">
    <mxGraphModel dx="1102" dy="1009" grid="1" gridSize="10" guides="1" tooltips="1" connect="1" arrows="1" fold="1" page="1" pageScale="1" pageWidth="850" pageHeight="1100" math="0" shadow="0">
      <root>
        <mxCell id="JD6W69ovNT6ZV-vD3g39-0" />
        <mxCell id="JD6W69ovNT6ZV-vD3g39-1" parent="JD6W69ovNT6ZV-vD3g39-0" />
        <mxCell id="JD6W69ovNT6ZV-vD3g39-2" value="Caso de uso RF-06, RF-07, RF-08, RF-09, RF-10, RF-11" style="swimlane;fillStyle=solid;swimlaneFillColor=default;movable=1;resizable=1;rotatable=1;deletable=1;editable=1;locked=0;connectable=1;" vertex="1" parent="JD6W69ovNT6ZV-vD3g39-1">
          <mxGeometry x="410" y="690" width="980" height="290" as="geometry">
            <mxRectangle x="105" y="130" width="100" height="30" as="alternateBounds" />
          </mxGeometry>
        </mxCell>
        <mxCell id="JD6W69ovNT6ZV-vD3g39-32" style="rounded=0;orthogonalLoop=1;jettySize=auto;html=1;entryX=0;entryY=0.5;entryDx=0;entryDy=0;jumpStyle=arc;jumpSize=6;" edge="1" parent="JD6W69ovNT6ZV-vD3g39-1" source="JD6W69ovNT6ZV-vD3g39-27" target="JD6W69ovNT6ZV-vD3g39-6">
          <mxGeometry relative="1" as="geometry">
            <mxPoint x="238" y="398" as="sourcePoint" />
            <mxPoint x="295" y="333" as="targetPoint" />
          </mxGeometry>
        </mxCell>
        <mxCell id="JD6W69ovNT6ZV-vD3g39-7" value="Gestionar miembros&lt;br&gt;de grupos" style="rounded=1;whiteSpace=wrap;html=1;perimeterSpacing=0;arcSize=120;" vertex="1" parent="JD6W69ovNT6ZV-vD3g39-1">
          <mxGeometry x="715" y="760" width="130" height="43.5" as="geometry" />
        </mxCell>
        <mxCell id="JD6W69ovNT6ZV-vD3g39-8" value="Gestionar ciclos y &lt;br&gt;planes de entrenamiento" style="rounded=1;whiteSpace=wrap;html=1;perimeterSpacing=0;arcSize=120;" vertex="1" parent="JD6W69ovNT6ZV-vD3g39-1">
          <mxGeometry x="700" y="833.5" width="160" height="43.5" as="geometry" />
        </mxCell>
        <mxCell id="JD6W69ovNT6ZV-vD3g39-6" value="Crear grupo&lt;br&gt;de entrenamiento" style="rounded=1;whiteSpace=wrap;html=1;perimeterSpacing=0;arcSize=120;" vertex="1" parent="JD6W69ovNT6ZV-vD3g39-1">
          <mxGeometry x="440" y="790" width="130" height="43.5" as="geometry" />
        </mxCell>
        <mxCell id="JD6W69ovNT6ZV-vD3g39-17" value="Generar objetivos" style="rounded=1;whiteSpace=wrap;html=1;perimeterSpacing=0;arcSize=120;" vertex="1" parent="JD6W69ovNT6ZV-vD3g39-1">
          <mxGeometry x="970" y="790" width="130" height="43.5" as="geometry" />
        </mxCell>
        <mxCell id="JD6W69ovNT6ZV-vD3g39-14" value="Visualizar entrenamientos de&lt;br&gt;esgrimista" style="rounded=1;whiteSpace=wrap;html=1;perimeterSpacing=0;arcSize=120;" vertex="1" parent="JD6W69ovNT6ZV-vD3g39-1">
          <mxGeometry x="970" y="870" width="130" height="43.5" as="geometry" />
        </mxCell>
        <mxCell id="JD6W69ovNT6ZV-vD3g39-39" value="Generar feedback" style="rounded=1;whiteSpace=wrap;html=1;perimeterSpacing=0;arcSize=120;" vertex="1" parent="JD6W69ovNT6ZV-vD3g39-1">
          <mxGeometry x="1230" y="870" width="130" height="43.5" as="geometry" />
        </mxCell>
        <mxCell id="JD6W69ovNT6ZV-vD3g39-15" value="&amp;lt;&amp;lt;include&amp;gt;&amp;gt;" style="endArrow=open;endSize=9;endFill=0;html=1;rounded=0;dashed=1;entryX=1;entryY=0.5;entryDx=0;entryDy=0;exitX=0;exitY=0.5;exitDx=0;exitDy=0;" edge="1" parent="JD6W69ovNT6ZV-vD3g39-1" source="JD6W69ovNT6ZV-vD3g39-7" target="JD6W69ovNT6ZV-vD3g39-6">
          <mxGeometry width="160" relative="1" as="geometry">
            <mxPoint x="440" y="860" as="sourcePoint" />
            <mxPoint x="600" y="860" as="targetPoint" />
          </mxGeometry>
        </mxCell>
        <mxCell id="JD6W69ovNT6ZV-vD3g39-27" value="Entrenador" style="shape=umlActor;verticalLabelPosition=bottom;verticalAlign=top;html=1;outlineConnect=0;" vertex="1" parent="JD6W69ovNT6ZV-vD3g39-1">
          <mxGeometry x="340" y="781.75" width="30" height="60" as="geometry" />
        </mxCell>
        <mxCell id="JD6W69ovNT6ZV-vD3g39-16" value="&amp;lt;&amp;lt;include&amp;gt;&amp;gt;" style="endArrow=open;endSize=9;endFill=0;html=1;rounded=0;dashed=1;entryX=0.938;entryY=0.774;entryDx=0;entryDy=0;exitX=0;exitY=0.5;exitDx=0;exitDy=0;entryPerimeter=0;" edge="1" parent="JD6W69ovNT6ZV-vD3g39-1" source="JD6W69ovNT6ZV-vD3g39-8" target="JD6W69ovNT6ZV-vD3g39-6">
          <mxGeometry width="160" relative="1" as="geometry">
            <mxPoint x="860" y="636" as="sourcePoint" />
            <mxPoint x="730" y="682" as="targetPoint" />
          </mxGeometry>
        </mxCell>
        <mxCell id="JD6W69ovNT6ZV-vD3g39-18" value="&amp;lt;&amp;lt;extends&amp;gt;&amp;gt;" style="endArrow=open;endSize=9;endFill=0;html=1;rounded=0;dashed=1;entryX=0.91;entryY=0.112;entryDx=0;entryDy=0;exitX=0;exitY=0.5;exitDx=0;exitDy=0;entryPerimeter=0;" edge="1" parent="JD6W69ovNT6ZV-vD3g39-1" source="JD6W69ovNT6ZV-vD3g39-17" target="JD6W69ovNT6ZV-vD3g39-8">
          <mxGeometry width="160" relative="1" as="geometry">
            <mxPoint x="910" y="850" as="sourcePoint" />
            <mxPoint x="1070" y="850" as="targetPoint" />
          </mxGeometry>
        </mxCell>
        <mxCell id="JD6W69ovNT6ZV-vD3g39-19" value="&amp;lt;&amp;lt;extends&amp;gt;&amp;gt;" style="endArrow=open;endSize=9;endFill=0;html=1;rounded=0;dashed=1;entryX=0.902;entryY=0.914;entryDx=0;entryDy=0;entryPerimeter=0;exitX=0;exitY=0.5;exitDx=0;exitDy=0;" edge="1" parent="JD6W69ovNT6ZV-vD3g39-1" source="JD6W69ovNT6ZV-vD3g39-14" target="JD6W69ovNT6ZV-vD3g39-8">
          <mxGeometry width="160" relative="1" as="geometry">
            <mxPoint x="440" y="830" as="sourcePoint" />
            <mxPoint x="600" y="830" as="targetPoint" />
          </mxGeometry>
        </mxCell>
        <mxCell id="JD6W69ovNT6ZV-vD3g39-40" value="&amp;lt;&amp;lt;extends&amp;gt;&amp;gt;" style="endArrow=open;endSize=9;endFill=0;html=1;rounded=0;dashed=1;entryX=1;entryY=0.5;entryDx=0;entryDy=0;exitX=0;exitY=0.5;exitDx=0;exitDy=0;" edge="1" parent="JD6W69ovNT6ZV-vD3g39-1" source="JD6W69ovNT6ZV-vD3g39-39" target="JD6W69ovNT6ZV-vD3g39-14">
          <mxGeometry width="160" relative="1" as="geometry">
            <mxPoint x="310" y="830" as="sourcePoint" />
            <mxPoint x="470" y="830" as="targetPoint" />
          </mxGeometry>
        </mxCell>
      </root>
    </mxGraphModel>
  </diagram>
  <diagram id="NFybtFc7av4IZcIOsQZl" name="Page-2">
    <mxGraphModel dx="638" dy="584" grid="1" gridSize="10" guides="1" tooltips="1" connect="1" arrows="1" fold="1" page="1" pageScale="1" pageWidth="850" pageHeight="1100" math="0" shadow="0">
      <root>
        <mxCell id="0" />
        <mxCell id="1" parent="0" />
        <mxCell id="nuWwv0iG5Ss31JB7M3wJ-1" value="Caso de uso RF-01" style="swimlane;fillStyle=solid;swimlaneFillColor=default;" vertex="1" parent="1">
          <mxGeometry x="90" y="655" width="270" height="250" as="geometry">
            <mxRectangle x="105" y="130" width="100" height="30" as="alternateBounds" />
          </mxGeometry>
        </mxCell>
        <mxCell id="nuWwv0iG5Ss31JB7M3wJ-2" value="Log in/Sign up" style="rounded=1;whiteSpace=wrap;html=1;perimeterSpacing=0;arcSize=120;" vertex="1" parent="nuWwv0iG5Ss31JB7M3wJ-1">
          <mxGeometry x="70" y="103.25" width="130" height="43.5" as="geometry" />
        </mxCell>
        <mxCell id="nuWwv0iG5Ss31JB7M3wJ-14" value="&amp;lt;&amp;lt;include&amp;gt;&amp;gt;" style="endArrow=open;endSize=9;endFill=0;html=1;rounded=0;dashed=1;entryX=1;entryY=0.5;entryDx=0;entryDy=0;exitX=0;exitY=0.5;exitDx=0;exitDy=0;" edge="1" parent="nuWwv0iG5Ss31JB7M3wJ-1" source="nuWwv0iG5Ss31JB7M3wJ-6">
          <mxGeometry width="160" relative="1" as="geometry">
            <mxPoint x="30" y="550" as="sourcePoint" />
            <mxPoint x="470" y="241.75" as="targetPoint" />
          </mxGeometry>
        </mxCell>
        <mxCell id="nuWwv0iG5Ss31JB7M3wJ-15" value="&amp;lt;&amp;lt;include&amp;gt;&amp;gt;" style="endArrow=open;endSize=9;endFill=0;html=1;rounded=0;dashed=1;entryX=0.938;entryY=0.774;entryDx=0;entryDy=0;exitX=0;exitY=0.5;exitDx=0;exitDy=0;entryPerimeter=0;" edge="1" parent="nuWwv0iG5Ss31JB7M3wJ-1" source="nuWwv0iG5Ss31JB7M3wJ-7">
          <mxGeometry width="160" relative="1" as="geometry">
            <mxPoint x="450" y="326" as="sourcePoint" />
            <mxPoint x="461.9400000000005" y="253.6690000000001" as="targetPoint" />
          </mxGeometry>
        </mxCell>
        <mxCell id="nuWwv0iG5Ss31JB7M3wJ-17" value="&amp;lt;&amp;lt;extends&amp;gt;&amp;gt;" style="endArrow=open;endSize=9;endFill=0;html=1;rounded=0;dashed=1;entryX=0.91;entryY=0.112;entryDx=0;entryDy=0;exitX=0;exitY=0.5;exitDx=0;exitDy=0;entryPerimeter=0;" edge="1" parent="nuWwv0iG5Ss31JB7M3wJ-1" source="nuWwv0iG5Ss31JB7M3wJ-16">
          <mxGeometry width="160" relative="1" as="geometry">
            <mxPoint x="500" y="540" as="sourcePoint" />
            <mxPoint x="745.6000000000004" y="264.87199999999984" as="targetPoint" />
          </mxGeometry>
        </mxCell>
        <mxCell id="nuWwv0iG5Ss31JB7M3wJ-18" value="&amp;lt;&amp;lt;extends&amp;gt;&amp;gt;" style="endArrow=open;endSize=9;endFill=0;html=1;rounded=0;dashed=1;entryX=0.902;entryY=0.914;entryDx=0;entryDy=0;entryPerimeter=0;exitX=0;exitY=0.5;exitDx=0;exitDy=0;" edge="1" parent="nuWwv0iG5Ss31JB7M3wJ-1" source="nuWwv0iG5Ss31JB7M3wJ-13">
          <mxGeometry width="160" relative="1" as="geometry">
            <mxPoint x="30" y="520" as="sourcePoint" />
            <mxPoint x="744.3200000000006" y="299.759" as="targetPoint" />
          </mxGeometry>
        </mxCell>
        <mxCell id="nuWwv0iG5Ss31JB7M3wJ-19" value="&amp;lt;&amp;lt;extends&amp;gt;&amp;gt;" style="endArrow=open;endSize=9;endFill=0;html=1;rounded=0;dashed=1;entryX=0.943;entryY=0.262;entryDx=0;entryDy=0;exitX=0;exitY=0.5;exitDx=0;exitDy=0;entryPerimeter=0;" edge="1" parent="nuWwv0iG5Ss31JB7M3wJ-1" target="nuWwv0iG5Ss31JB7M3wJ-9">
          <mxGeometry width="160" relative="1" as="geometry">
            <mxPoint x="430" y="376.5" as="sourcePoint" />
            <mxPoint x="-40" y="250" as="targetPoint" />
          </mxGeometry>
        </mxCell>
        <mxCell id="nuWwv0iG5Ss31JB7M3wJ-20" value="&amp;lt;&amp;lt;extends&amp;gt;&amp;gt;" style="endArrow=open;endSize=9;endFill=0;html=1;rounded=0;dashed=1;entryX=1;entryY=0.5;entryDx=0;entryDy=0;exitX=0;exitY=0.5;exitDx=0;exitDy=0;" edge="1" parent="nuWwv0iG5Ss31JB7M3wJ-1" target="nuWwv0iG5Ss31JB7M3wJ-9">
          <mxGeometry width="160" relative="1" as="geometry">
            <mxPoint x="430" y="434.7499999999998" as="sourcePoint" />
            <mxPoint x="-40" y="250" as="targetPoint" />
          </mxGeometry>
        </mxCell>
        <mxCell id="nuWwv0iG5Ss31JB7M3wJ-21" value="&amp;lt;&amp;lt;extends&amp;gt;&amp;gt;" style="endArrow=open;endSize=9;endFill=0;html=1;rounded=0;dashed=1;entryX=0.943;entryY=0.778;entryDx=0;entryDy=0;entryPerimeter=0;exitX=0;exitY=0.5;exitDx=0;exitDy=0;" edge="1" parent="nuWwv0iG5Ss31JB7M3wJ-1" target="nuWwv0iG5Ss31JB7M3wJ-9">
          <mxGeometry width="160" relative="1" as="geometry">
            <mxPoint x="430" y="496.5" as="sourcePoint" />
            <mxPoint x="-40" y="250" as="targetPoint" />
          </mxGeometry>
        </mxCell>
        <mxCell id="nuWwv0iG5Ss31JB7M3wJ-22" style="rounded=0;orthogonalLoop=1;jettySize=auto;html=1;jumpStyle=arc;jumpSize=6;" edge="1" parent="1" source="nuWwv0iG5Ss31JB7M3wJ-23" target="nuWwv0iG5Ss31JB7M3wJ-2">
          <mxGeometry relative="1" as="geometry" />
        </mxCell>
        <mxCell id="nuWwv0iG5Ss31JB7M3wJ-23" value="Admin" style="shape=umlActor;verticalLabelPosition=bottom;verticalAlign=top;html=1;outlineConnect=0;" vertex="1" parent="1">
          <mxGeometry x="420" y="750" width="30" height="60" as="geometry" />
        </mxCell>
        <mxCell id="nuWwv0iG5Ss31JB7M3wJ-24" style="rounded=0;orthogonalLoop=1;jettySize=auto;html=1;jumpStyle=arc;jumpSize=6;entryX=0;entryY=0.5;entryDx=0;entryDy=0;" edge="1" parent="1" source="nuWwv0iG5Ss31JB7M3wJ-26" target="nuWwv0iG5Ss31JB7M3wJ-2">
          <mxGeometry relative="1" as="geometry" />
        </mxCell>
        <mxCell id="nuWwv0iG5Ss31JB7M3wJ-26" value="Entrenador" style="shape=umlActor;verticalLabelPosition=bottom;verticalAlign=top;html=1;outlineConnect=0;" vertex="1" parent="1">
          <mxGeometry x="20" y="690" width="30" height="60" as="geometry" />
        </mxCell>
        <mxCell id="nuWwv0iG5Ss31JB7M3wJ-28" style="rounded=0;orthogonalLoop=1;jettySize=auto;html=1;exitX=0.5;exitY=0.5;exitDx=0;exitDy=0;exitPerimeter=0;entryX=0.019;entryY=0.683;entryDx=0;entryDy=0;jumpStyle=arc;entryPerimeter=0;" edge="1" parent="1" source="nuWwv0iG5Ss31JB7M3wJ-30" target="nuWwv0iG5Ss31JB7M3wJ-2">
          <mxGeometry relative="1" as="geometry" />
        </mxCell>
        <mxCell id="nuWwv0iG5Ss31JB7M3wJ-30" value="Esgrimista" style="shape=umlActor;verticalLabelPosition=bottom;verticalAlign=top;html=1;outlineConnect=0;" vertex="1" parent="1">
          <mxGeometry x="20" y="818.25" width="30" height="60" as="geometry" />
        </mxCell>
        <mxCell id="nuWwv0iG5Ss31JB7M3wJ-39" value="&amp;lt;&amp;lt;extends&amp;gt;&amp;gt;" style="endArrow=open;endSize=9;endFill=0;html=1;rounded=0;dashed=1;entryX=1;entryY=0.5;entryDx=0;entryDy=0;exitX=0;exitY=0.5;exitDx=0;exitDy=0;" edge="1" parent="1" source="nuWwv0iG5Ss31JB7M3wJ-38">
          <mxGeometry width="160" relative="1" as="geometry">
            <mxPoint x="310" y="670" as="sourcePoint" />
            <mxPoint x="1080" y="475.25" as="targetPoint" />
          </mxGeometry>
        </mxCell>
      </root>
    </mxGraphModel>
  </diagram>
  <diagram name="Copy of Page-2" id="qrCyp8m8bWmmnrE10eMJ">
    <mxGraphModel dx="1427" dy="529" grid="1" gridSize="10" guides="1" tooltips="1" connect="1" arrows="1" fold="1" page="1" pageScale="1" pageWidth="850" pageHeight="1100" math="0" shadow="0">
      <root>
        <mxCell id="uhZ-y5BC8pCA1_m76_pW-0" />
        <mxCell id="uhZ-y5BC8pCA1_m76_pW-1" parent="uhZ-y5BC8pCA1_m76_pW-0" />
        <mxCell id="uhZ-y5BC8pCA1_m76_pW-2" value="Caso de uso RF-06" style="swimlane;fillStyle=solid;swimlaneFillColor=default;" vertex="1" parent="uhZ-y5BC8pCA1_m76_pW-1">
          <mxGeometry x="90" y="655" width="270" height="250" as="geometry">
            <mxRectangle x="105" y="130" width="100" height="30" as="alternateBounds" />
          </mxGeometry>
        </mxCell>
        <mxCell id="13j0TXuzdyARBFjHZrSd-0" value="Crear grupo&lt;br&gt;de entrenamiento" style="rounded=1;whiteSpace=wrap;html=1;perimeterSpacing=0;arcSize=120;" vertex="1" parent="uhZ-y5BC8pCA1_m76_pW-2">
          <mxGeometry x="70" y="103.25" width="130" height="43.5" as="geometry" />
        </mxCell>
        <mxCell id="uhZ-y5BC8pCA1_m76_pW-11" style="rounded=0;orthogonalLoop=1;jettySize=auto;html=1;jumpStyle=arc;jumpSize=6;" edge="1" parent="uhZ-y5BC8pCA1_m76_pW-1" source="uhZ-y5BC8pCA1_m76_pW-12">
          <mxGeometry relative="1" as="geometry">
            <mxPoint x="290" y="780" as="targetPoint" />
          </mxGeometry>
        </mxCell>
        <mxCell id="uhZ-y5BC8pCA1_m76_pW-12" value="Esgrimista" style="shape=umlActor;verticalLabelPosition=bottom;verticalAlign=top;html=1;outlineConnect=0;" vertex="1" parent="uhZ-y5BC8pCA1_m76_pW-1">
          <mxGeometry x="420" y="750" width="30" height="60" as="geometry" />
        </mxCell>
        <mxCell id="av3vXfv8-2EXz7Q7TIoV-1" style="edgeStyle=orthogonalEdgeStyle;rounded=0;orthogonalLoop=1;jettySize=auto;html=1;" edge="1" parent="uhZ-y5BC8pCA1_m76_pW-1" source="av3vXfv8-2EXz7Q7TIoV-0">
          <mxGeometry relative="1" as="geometry">
            <mxPoint x="160" y="780" as="targetPoint" />
          </mxGeometry>
        </mxCell>
        <mxCell id="av3vXfv8-2EXz7Q7TIoV-0" value="Entrenador" style="shape=umlActor;verticalLabelPosition=bottom;verticalAlign=top;html=1;outlineConnect=0;" vertex="1" parent="uhZ-y5BC8pCA1_m76_pW-1">
          <mxGeometry x="10" y="750" width="30" height="60" as="geometry" />
        </mxCell>
      </root>
    </mxGraphModel>
  </diagram>
  <diagram name="Copy of Copy of Page-2" id="dbM7DZEJxfcXeWatI93Y">
    <mxGraphModel dx="1456" dy="555" grid="1" gridSize="10" guides="1" tooltips="1" connect="1" arrows="1" fold="1" page="1" pageScale="1" pageWidth="850" pageHeight="1100" math="0" shadow="0">
      <root>
        <mxCell id="wj08-_BQkeCAR8X0ljRX-0" />
        <mxCell id="wj08-_BQkeCAR8X0ljRX-1" parent="wj08-_BQkeCAR8X0ljRX-0" />
        <mxCell id="wj08-_BQkeCAR8X0ljRX-2" value="Caso de uso RF-07" style="swimlane;fillStyle=solid;swimlaneFillColor=default;" vertex="1" parent="wj08-_BQkeCAR8X0ljRX-1">
          <mxGeometry x="90" y="655" width="270" height="250" as="geometry">
            <mxRectangle x="105" y="130" width="100" height="30" as="alternateBounds" />
          </mxGeometry>
        </mxCell>
        <mxCell id="wj08-_BQkeCAR8X0ljRX-3" value="Crear grupo&lt;br&gt;de entrenamiento" style="rounded=1;whiteSpace=wrap;html=1;perimeterSpacing=0;arcSize=120;" vertex="1" parent="wj08-_BQkeCAR8X0ljRX-2">
          <mxGeometry x="70" y="103.25" width="130" height="43.5" as="geometry" />
        </mxCell>
        <mxCell id="wj08-_BQkeCAR8X0ljRX-6" style="edgeStyle=orthogonalEdgeStyle;rounded=0;orthogonalLoop=1;jettySize=auto;html=1;" edge="1" parent="wj08-_BQkeCAR8X0ljRX-1" source="wj08-_BQkeCAR8X0ljRX-7">
          <mxGeometry relative="1" as="geometry">
            <mxPoint x="160" y="780" as="targetPoint" />
          </mxGeometry>
        </mxCell>
        <mxCell id="wj08-_BQkeCAR8X0ljRX-7" value="Entrenador" style="shape=umlActor;verticalLabelPosition=bottom;verticalAlign=top;html=1;outlineConnect=0;" vertex="1" parent="wj08-_BQkeCAR8X0ljRX-1">
          <mxGeometry x="10" y="750" width="30" height="60" as="geometry" />
        </mxCell>
      </root>
    </mxGraphModel>
  </diagram>
</mxfile>
